<svg xmlns="http://www.w3.org/2000/svg" viewBox="0 0 72 72" role="img" aria-label="Dog Calm Kit logo"><defs><linearGradient id="g-dog-calm-kit" x1="12" y1="8" x2="60" y2="64" gradientUnits="userSpaceOnUse"><stop offset="0" stop-color="#fff" stop-opacity=".95"/><stop offset="1" stop-color="#dfe8cc"/></linearGradient><filter id="s-dog-calm-kit" x="-20%" y="-20%" width="140%" height="140%"><feDropShadow dx="0" dy="5" stdDeviation="4" flood-color="#151811" flood-opacity=".18"/></filter></defs><rect x="5" y="5" width="62" height="62" rx="18" fill="url(#g-dog-calm-kit)"/><path d="M14 22c7-10 23-14 36-8 9 4 14 13 10 25-4 13-17 21-31 17-13-3-21-14-17-26 .5-2 1-5 2-8Z" fill="#78945a" opacity=".2"/><g filter="url(#s-dog-calm-kit)"><path d="M22 44h25a9 9 0 0 0 0-18H22v18Z" fill="#3f512a"/><path d="M47 30h4a5 5 0 0 1 0 10h-4" stroke="#151811" stroke-width="2.2" stroke-linecap="round" stroke-linejoin="round" fill="none"/><path d="M27 26c0-6 4-7 4-12" stroke="#151811" stroke-width="2.2" stroke-linecap="round" stroke-linejoin="round" fill="none"/><path d="M37 26c0-5 5-7 5-12" stroke="#151811" stroke-width="2.2" stroke-linecap="round" stroke-linejoin="round" fill="none"/><path d="M20 50h33" stroke="#151811" stroke-width="3.2" stroke-linecap="round" stroke-linejoin="round" fill="none"/><circle cx="20" cy="21" r="5" fill="#78945a"/></g></svg>