<svg xmlns="http://www.w3.org/2000/svg" viewBox="0 0 72 72" role="img" aria-label="Classroom Maker logo"><defs><linearGradient id="g-classroom-maker" x1="12" y1="8" x2="60" y2="64" gradientUnits="userSpaceOnUse"><stop offset="0" stop-color="#fff" stop-opacity=".95"/><stop offset="1" stop-color="#e5d7b8"/></linearGradient><filter id="s-classroom-maker" x="-20%" y="-20%" width="140%" height="140%"><feDropShadow dx="0" dy="5" stdDeviation="4" flood-color="#191713" flood-opacity=".18"/></filter></defs><rect x="5" y="5" width="62" height="62" rx="18" fill="url(#g-classroom-maker)"/><path d="M14 22c7-10 23-14 36-8 9 4 14 13 10 25-4 13-17 21-31 17-13-3-21-14-17-26 .5-2 1-5 2-8Z" fill="#b48539" opacity=".2"/><g filter="url(#s-classroom-maker)"><path d="M22 21h28v31H22z" fill="#4d3a1e"/><path d="M28 28h16M28 35h12M28 42h18" stroke="#191713" stroke-width="2.2" stroke-linecap="round" stroke-linejoin="round" fill="none"/><path d="M19 52h34" stroke="#191713" stroke-width="3.2" stroke-linecap="round" stroke-linejoin="round" fill="none"/><path d="M52 23l5 5-12 12-6 1 1-6 12-12Z" fill="#b48539"/></g></svg>