<svg xmlns="http://www.w3.org/2000/svg" viewBox="0 0 72 72" role="img" aria-label="Dorm Study Stack logo"><defs><linearGradient id="g-dorm-study-stack" x1="12" y1="8" x2="60" y2="64" gradientUnits="userSpaceOnUse"><stop offset="0" stop-color="#fff" stop-opacity=".95"/><stop offset="1" stop-color="#d7e2ef"/></linearGradient><filter id="s-dorm-study-stack" x="-20%" y="-20%" width="140%" height="140%"><feDropShadow dx="0" dy="5" stdDeviation="4" flood-color="#121821" flood-opacity=".18"/></filter></defs><rect x="5" y="5" width="62" height="62" rx="18" fill="url(#g-dorm-study-stack)"/><path d="M14 22c7-10 23-14 36-8 9 4 14 13 10 25-4 13-17 21-31 17-13-3-21-14-17-26 .5-2 1-5 2-8Z" fill="#5b7ba7" opacity=".2"/><g filter="url(#s-dorm-study-stack)"><path d="M20 45h32v8H20z" fill="#263f60"/><path d="M24 35h24v10H24z" fill="#5b7ba7"/><path d="M28 25h16v10H28z" fill="#263f60"/><path d="M30 20h12" stroke="#121821" stroke-width="2.2" stroke-linecap="round" stroke-linejoin="round" fill="none"/><path d="M46 20h7v21" stroke="#121821" stroke-width="2.2" stroke-linecap="round" stroke-linejoin="round" fill="none"/><circle cx="53" cy="45" r="4" fill="#5b7ba7"/></g></svg>