<svg xmlns="http://www.w3.org/2000/svg" viewBox="0 0 72 72" role="img" aria-label="Table Party Play logo"><defs><linearGradient id="g-table-party-play" x1="12" y1="8" x2="60" y2="64" gradientUnits="userSpaceOnUse"><stop offset="0" stop-color="#fff" stop-opacity=".95"/><stop offset="1" stop-color="#ead0d8"/></linearGradient><filter id="s-table-party-play" x="-20%" y="-20%" width="140%" height="140%"><feDropShadow dx="0" dy="5" stdDeviation="4" flood-color="#201417" flood-opacity=".18"/></filter></defs><rect x="5" y="5" width="62" height="62" rx="18" fill="url(#g-table-party-play)"/><path d="M14 22c7-10 23-14 36-8 9 4 14 13 10 25-4 13-17 21-31 17-13-3-21-14-17-26 .5-2 1-5 2-8Z" fill="#c25f78" opacity=".2"/><g filter="url(#s-table-party-play)"><rect x="19" y="23" width="34" height="28" rx="6" fill="#653243"/><circle cx="29" cy="33" r="3.5" fill="#c25f78"/><circle cx="43" cy="41" r="3.5" fill="#c25f78"/><path d="M25 51c3 4 19 4 22 0" stroke="#201417" stroke-width="2.2" stroke-linecap="round" stroke-linejoin="round" fill="none"/><path d="M23 20l-5-5M49 20l5-5" stroke="#201417" stroke-width="2.2" stroke-linecap="round" stroke-linejoin="round" fill="none"/></g></svg>