<svg xmlns="http://www.w3.org/2000/svg" viewBox="0 0 72 72" role="img" aria-label="Trail Cabin Kit logo"><defs><linearGradient id="g-trail-cabin-kit" x1="12" y1="8" x2="60" y2="64" gradientUnits="userSpaceOnUse"><stop offset="0" stop-color="#fff" stop-opacity=".95"/><stop offset="1" stop-color="#d9dec8"/></linearGradient><filter id="s-trail-cabin-kit" x="-20%" y="-20%" width="140%" height="140%"><feDropShadow dx="0" dy="5" stdDeviation="4" flood-color="#171a13" flood-opacity=".18"/></filter></defs><rect x="5" y="5" width="62" height="62" rx="18" fill="url(#g-trail-cabin-kit)"/><path d="M14 22c7-10 23-14 36-8 9 4 14 13 10 25-4 13-17 21-31 17-13-3-21-14-17-26 .5-2 1-5 2-8Z" fill="#758a55" opacity=".2"/><g filter="url(#s-trail-cabin-kit)"><path d="M17 48 36 20l19 28H17Z" fill="#3c472c"/><path d="M27 48V35h18v13" fill="#758a55"/><path d="M22 50h28" stroke="#171a13" stroke-width="3.2" stroke-linecap="round" stroke-linejoin="round" fill="none"/><path d="M18 30c6 0 8-7 14-7" stroke="#171a13" stroke-width="2.2" stroke-linecap="round" stroke-linejoin="round" fill="none"/><path d="M43 19l9-6" stroke="#171a13" stroke-width="2.2" stroke-linecap="round" stroke-linejoin="round" fill="none"/><circle cx="53" cy="13" r="4" fill="#758a55"/></g></svg>