<svg xmlns="http://www.w3.org/2000/svg" viewBox="0 0 72 72" role="img" aria-label="Active Daily Kit logo"><defs><linearGradient id="g-active-daily-kit" x1="12" y1="8" x2="60" y2="64" gradientUnits="userSpaceOnUse"><stop offset="0" stop-color="#fff" stop-opacity=".95"/><stop offset="1" stop-color="#d1e6e3"/></linearGradient><filter id="s-active-daily-kit" x="-20%" y="-20%" width="140%" height="140%"><feDropShadow dx="0" dy="5" stdDeviation="4" flood-color="#101918" flood-opacity=".18"/></filter></defs><rect x="5" y="5" width="62" height="62" rx="18" fill="url(#g-active-daily-kit)"/><path d="M14 22c7-10 23-14 36-8 9 4 14 13 10 25-4 13-17 21-31 17-13-3-21-14-17-26 .5-2 1-5 2-8Z" fill="#3e9488" opacity=".2"/><g filter="url(#s-active-daily-kit)"><path d="M20 43c7-13 15-20 25-21" stroke="#101918" stroke-width="3.2" stroke-linecap="round" stroke-linejoin="round" fill="none"/><path d="M45 22l-3 9 9-3" fill="#3e9488"/><path d="M23 46h19a8 8 0 0 1 8 8H30a8 8 0 0 1-7-8Z" fill="#24504d"/><circle cx="27" cy="23" r="6" fill="#3e9488"/><path d="M20 54h34" stroke="#101918" stroke-width="2.2" stroke-linecap="round" stroke-linejoin="round" fill="none"/></g></svg>