<svg xmlns="http://www.w3.org/2000/svg" viewBox="0 0 72 72" role="img" aria-label="DeskFlow Edit logo"><defs><linearGradient id="g-deskflow-edit" x1="12" y1="8" x2="60" y2="64" gradientUnits="userSpaceOnUse"><stop offset="0" stop-color="#fff" stop-opacity=".95"/><stop offset="1" stop-color="#dce8de"/></linearGradient><filter id="s-deskflow-edit" x="-20%" y="-20%" width="140%" height="140%"><feDropShadow dx="0" dy="5" stdDeviation="4" flood-color="#141816" flood-opacity=".18"/></filter></defs><rect x="5" y="5" width="62" height="62" rx="18" fill="url(#g-deskflow-edit)"/><path d="M14 22c7-10 23-14 36-8 9 4 14 13 10 25-4 13-17 21-31 17-13-3-21-14-17-26 .5-2 1-5 2-8Z" fill="#507d61" opacity=".2"/><g filter="url(#s-deskflow-edit)"><path d="M20 47h32" stroke="#141816" stroke-width="3.2" stroke-linecap="round" stroke-linejoin="round" fill="none"/><path d="M25 26h22a4 4 0 0 1 4 4v13H21V30a4 4 0 0 1 4-4Z" fill="#2d4638"/><path d="M30 32h12" stroke="#141816" stroke-width="2.2" stroke-linecap="round" stroke-linejoin="round" fill="none"/><path d="M36 43v9" stroke="#141816" stroke-width="2.2" stroke-linecap="round" stroke-linejoin="round" fill="none"/><path d="M24 53h24" stroke="#141816" stroke-width="2.2" stroke-linecap="round" stroke-linejoin="round" fill="none"/><circle cx="51" cy="24" r="5" fill="#507d61"/></g></svg>