<svg xmlns="http://www.w3.org/2000/svg" viewBox="0 0 72 72" role="img" aria-label="Beauty Bath Edit logo"><defs><linearGradient id="g-beauty-bath-edit" x1="12" y1="8" x2="60" y2="64" gradientUnits="userSpaceOnUse"><stop offset="0" stop-color="#fff" stop-opacity=".95"/><stop offset="1" stop-color="#ecd4df"/></linearGradient><filter id="s-beauty-bath-edit" x="-20%" y="-20%" width="140%" height="140%"><feDropShadow dx="0" dy="5" stdDeviation="4" flood-color="#1f151a" flood-opacity=".18"/></filter></defs><rect x="5" y="5" width="62" height="62" rx="18" fill="url(#g-beauty-bath-edit)"/><path d="M14 22c7-10 23-14 36-8 9 4 14 13 10 25-4 13-17 21-31 17-13-3-21-14-17-26 .5-2 1-5 2-8Z" fill="#ba6a8b" opacity=".2"/><g filter="url(#s-beauty-bath-edit)"><path d="M23 48h26c4 0 7-3 7-7H16c0 4 3 7 7 7Z" fill="#5f3548"/><path d="M24 48l3 7M45 48l-3 7" stroke="#1f151a" stroke-width="2.2" stroke-linecap="round" stroke-linejoin="round" fill="none"/><path d="M28 26c0-5 4-8 8-8s8 3 8 8c0 8-8 12-8 12s-8-4-8-12Z" fill="#ba6a8b"/><path d="M19 37h34" stroke="#1f151a" stroke-width="3.2" stroke-linecap="round" stroke-linejoin="round" fill="none"/><circle cx="53" cy="25" r="3" fill="#5f3548"/></g></svg>