<svg xmlns="http://www.w3.org/2000/svg" viewBox="0 0 72 72" role="img" aria-label="Garden Plant Studio logo"><defs><linearGradient id="g-garden-plant-studio" x1="12" y1="8" x2="60" y2="64" gradientUnits="userSpaceOnUse"><stop offset="0" stop-color="#fff" stop-opacity=".95"/><stop offset="1" stop-color="#d8e7d0"/></linearGradient><filter id="s-garden-plant-studio" x="-20%" y="-20%" width="140%" height="140%"><feDropShadow dx="0" dy="5" stdDeviation="4" flood-color="#11190f" flood-opacity=".18"/></filter></defs><rect x="5" y="5" width="62" height="62" rx="18" fill="url(#g-garden-plant-studio)"/><path d="M14 22c7-10 23-14 36-8 9 4 14 13 10 25-4 13-17 21-31 17-13-3-21-14-17-26 .5-2 1-5 2-8Z" fill="#5f8c4f" opacity=".2"/><g filter="url(#s-garden-plant-studio)"><path d="M36 53V32" stroke="#11190f" stroke-width="3.2" stroke-linecap="round" stroke-linejoin="round" fill="none"/><path d="M36 34c-10-1-16-7-17-17 10 1 17 6 17 17Z" fill="#2f4f28"/><path d="M36 39c11-1 17-7 18-18-11 1-18 7-18 18Z" fill="#5f8c4f"/><path d="M25 54h22l3-13H22l3 13Z" fill="#2f4f28"/></g></svg>