<svg xmlns="http://www.w3.org/2000/svg" viewBox="0 0 72 72" role="img" aria-label="Home Reset Lab logo"><defs><linearGradient id="g-home-reset-lab" x1="12" y1="8" x2="60" y2="64" gradientUnits="userSpaceOnUse"><stop offset="0" stop-color="#fff" stop-opacity=".95"/><stop offset="1" stop-color="#dde5d9"/></linearGradient><filter id="s-home-reset-lab" x="-20%" y="-20%" width="140%" height="140%"><feDropShadow dx="0" dy="5" stdDeviation="4" flood-color="#161916" flood-opacity=".18"/></filter></defs><rect x="5" y="5" width="62" height="62" rx="18" fill="url(#g-home-reset-lab)"/><path d="M14 22c7-10 23-14 36-8 9 4 14 13 10 25-4 13-17 21-31 17-13-3-21-14-17-26 .5-2 1-5 2-8Z" fill="#687b5e" opacity=".2"/><g filter="url(#s-home-reset-lab)"><path d="M18 34 36 20l18 14v20H18V34Z" fill="#394735"/><path d="M28 54V39h16v15" fill="#687b5e"/><path d="M23 32h26" stroke="#161916" stroke-width="2.2" stroke-linecap="round" stroke-linejoin="round" fill="none"/><path d="M49 21l5-5M54 27h7M15 27H8" stroke="#161916" stroke-width="2.2" stroke-linecap="round" stroke-linejoin="round" fill="none"/><circle cx="36" cy="32" r="3" fill="#687b5e"/></g></svg>